<mxfile host="app.diagrams.net" agent="Mozilla/5.0 (Macintosh; Intel Mac OS X 10_15_7) AppleWebKit/537.36 (KHTML, like Gecko) Chrome/135.0.0.0 Safari/537.36" version="26.2.12">
  <diagram name="第 1 页" id="jbHn1_5BUdRWCfptBh27">
    <mxGraphModel dx="1218" dy="813" grid="0" gridSize="10" guides="1" tooltips="1" connect="1" arrows="1" fold="1" page="1" pageScale="1" pageWidth="827" pageHeight="1169" math="0" shadow="0">
      <root>
        <mxCell id="0" />
        <mxCell id="1" parent="0" />
        <mxCell id="NRJpqdC6eGJBBTWSk-TN-9" style="edgeStyle=orthogonalEdgeStyle;rounded=0;orthogonalLoop=1;jettySize=auto;html=1;entryX=0.5;entryY=0;entryDx=0;entryDy=0;" edge="1" parent="1" source="NRJpqdC6eGJBBTWSk-TN-1" target="NRJpqdC6eGJBBTWSk-TN-4">
          <mxGeometry relative="1" as="geometry" />
        </mxCell>
        <mxCell id="NRJpqdC6eGJBBTWSk-TN-1" value="&lt;font face=&quot;Georgia&quot;&gt;&lt;b&gt;RGB图像&lt;/b&gt;&lt;/font&gt;&lt;div&gt;&lt;font face=&quot;Georgia&quot;&gt;&lt;b&gt;（HxWx3）&lt;/b&gt;&lt;/font&gt;&lt;/div&gt;" style="rounded=1;whiteSpace=wrap;html=1;fillColor=#6d8764;fontColor=#ffffff;strokeColor=#3A5431;" vertex="1" parent="1">
          <mxGeometry x="120" y="180" width="120" height="60" as="geometry" />
        </mxCell>
        <mxCell id="NRJpqdC6eGJBBTWSk-TN-14" style="edgeStyle=orthogonalEdgeStyle;rounded=0;orthogonalLoop=1;jettySize=auto;html=1;exitX=1;exitY=0.5;exitDx=0;exitDy=0;entryX=0;entryY=0.5;entryDx=0;entryDy=0;" edge="1" parent="1" source="NRJpqdC6eGJBBTWSk-TN-2" target="NRJpqdC6eGJBBTWSk-TN-3">
          <mxGeometry relative="1" as="geometry" />
        </mxCell>
        <mxCell id="NRJpqdC6eGJBBTWSk-TN-2" value="&lt;font face=&quot;Georgia&quot;&gt;&lt;b&gt;点云数据&lt;/b&gt;&lt;/font&gt;" style="rounded=1;whiteSpace=wrap;html=1;fillColor=#6d8764;fontColor=#ffffff;strokeColor=#3A5431;" vertex="1" parent="1">
          <mxGeometry x="120" y="310" width="120" height="60" as="geometry" />
        </mxCell>
        <mxCell id="NRJpqdC6eGJBBTWSk-TN-15" style="edgeStyle=orthogonalEdgeStyle;rounded=0;orthogonalLoop=1;jettySize=auto;html=1;exitX=1;exitY=0.5;exitDx=0;exitDy=0;entryX=0;entryY=0.5;entryDx=0;entryDy=0;" edge="1" parent="1" source="NRJpqdC6eGJBBTWSk-TN-3" target="NRJpqdC6eGJBBTWSk-TN-4">
          <mxGeometry relative="1" as="geometry" />
        </mxCell>
        <mxCell id="NRJpqdC6eGJBBTWSk-TN-16" style="edgeStyle=orthogonalEdgeStyle;rounded=0;orthogonalLoop=1;jettySize=auto;html=1;exitX=1;exitY=0.5;exitDx=0;exitDy=0;entryX=0;entryY=0.5;entryDx=0;entryDy=0;" edge="1" parent="1" source="NRJpqdC6eGJBBTWSk-TN-3" target="NRJpqdC6eGJBBTWSk-TN-5">
          <mxGeometry relative="1" as="geometry" />
        </mxCell>
        <mxCell id="NRJpqdC6eGJBBTWSk-TN-3" value="&lt;b&gt;&lt;font face=&quot;Georgia&quot;&gt;点云投影&lt;/font&gt;&lt;/b&gt;&lt;div&gt;&lt;b&gt;&lt;font face=&quot;Georgia&quot;&gt;球面投影&lt;/font&gt;&lt;/b&gt;&lt;/div&gt;&lt;div&gt;&lt;b&gt;&lt;font face=&quot;Georgia&quot;&gt;采样&lt;/font&gt;&lt;/b&gt;&lt;/div&gt;" style="rounded=1;whiteSpace=wrap;html=1;fillColor=#fa6800;fontColor=#000000;strokeColor=#C73500;" vertex="1" parent="1">
          <mxGeometry x="280" y="310" width="120" height="60" as="geometry" />
        </mxCell>
        <mxCell id="NRJpqdC6eGJBBTWSk-TN-10" style="edgeStyle=orthogonalEdgeStyle;rounded=0;orthogonalLoop=1;jettySize=auto;html=1;exitX=1;exitY=0.5;exitDx=0;exitDy=0;entryX=0;entryY=0.5;entryDx=0;entryDy=0;" edge="1" parent="1" source="NRJpqdC6eGJBBTWSk-TN-4" target="NRJpqdC6eGJBBTWSk-TN-7">
          <mxGeometry relative="1" as="geometry" />
        </mxCell>
        <mxCell id="NRJpqdC6eGJBBTWSk-TN-11" style="edgeStyle=orthogonalEdgeStyle;rounded=0;orthogonalLoop=1;jettySize=auto;html=1;exitX=1;exitY=0.5;exitDx=0;exitDy=0;entryX=0;entryY=0.5;entryDx=0;entryDy=0;" edge="1" parent="1" source="NRJpqdC6eGJBBTWSk-TN-4" target="NRJpqdC6eGJBBTWSk-TN-6">
          <mxGeometry relative="1" as="geometry" />
        </mxCell>
        <mxCell id="NRJpqdC6eGJBBTWSk-TN-4" value="&lt;font face=&quot;Georgia&quot;&gt;&lt;b&gt;距离图D&lt;/b&gt;&lt;/font&gt;&lt;div&gt;&lt;font face=&quot;Georgia&quot;&gt;&lt;b&gt;（HxWx1）&lt;/b&gt;&lt;/font&gt;&lt;/div&gt;" style="rounded=0;whiteSpace=wrap;html=1;fillColor=#d80073;fontColor=#ffffff;strokeColor=#A50040;" vertex="1" parent="1">
          <mxGeometry x="440" y="250" width="120" height="60" as="geometry" />
        </mxCell>
        <mxCell id="NRJpqdC6eGJBBTWSk-TN-17" style="edgeStyle=orthogonalEdgeStyle;rounded=0;orthogonalLoop=1;jettySize=auto;html=1;exitX=1;exitY=0.5;exitDx=0;exitDy=0;entryX=0.5;entryY=1;entryDx=0;entryDy=0;" edge="1" parent="1" source="NRJpqdC6eGJBBTWSk-TN-5" target="NRJpqdC6eGJBBTWSk-TN-6">
          <mxGeometry relative="1" as="geometry" />
        </mxCell>
        <mxCell id="NRJpqdC6eGJBBTWSk-TN-5" value="&lt;font face=&quot;Georgia&quot;&gt;&lt;b&gt;坐标图XYZ&lt;/b&gt;&lt;/font&gt;&lt;div&gt;&lt;font face=&quot;Georgia&quot;&gt;&lt;b&gt;（HxWx3）&lt;/b&gt;&lt;/font&gt;&lt;/div&gt;" style="rounded=0;whiteSpace=wrap;html=1;fillColor=#d80073;fontColor=#ffffff;strokeColor=#A50040;" vertex="1" parent="1">
          <mxGeometry x="440" y="370" width="120" height="60" as="geometry" />
        </mxCell>
        <mxCell id="NRJpqdC6eGJBBTWSk-TN-13" style="edgeStyle=orthogonalEdgeStyle;rounded=0;orthogonalLoop=1;jettySize=auto;html=1;exitX=1;exitY=0.5;exitDx=0;exitDy=0;entryX=0.5;entryY=1;entryDx=0;entryDy=0;" edge="1" parent="1" source="NRJpqdC6eGJBBTWSk-TN-6" target="NRJpqdC6eGJBBTWSk-TN-8">
          <mxGeometry relative="1" as="geometry" />
        </mxCell>
        <mxCell id="NRJpqdC6eGJBBTWSk-TN-6" value="&lt;font face=&quot;Georgia&quot;&gt;&lt;b&gt;六通道&lt;/b&gt;&lt;/font&gt;&lt;div&gt;&lt;font face=&quot;Georgia&quot;&gt;&lt;b&gt;RGB+XYZ&lt;/b&gt;&lt;/font&gt;&lt;/div&gt;" style="rounded=1;whiteSpace=wrap;html=1;fillColor=#1ba1e2;fontColor=#ffffff;strokeColor=#006EAF;" vertex="1" parent="1">
          <mxGeometry x="614" y="318" width="120" height="60" as="geometry" />
        </mxCell>
        <mxCell id="NRJpqdC6eGJBBTWSk-TN-12" style="edgeStyle=orthogonalEdgeStyle;rounded=0;orthogonalLoop=1;jettySize=auto;html=1;exitX=1;exitY=0.5;exitDx=0;exitDy=0;entryX=0.5;entryY=0;entryDx=0;entryDy=0;" edge="1" parent="1" source="NRJpqdC6eGJBBTWSk-TN-7" target="NRJpqdC6eGJBBTWSk-TN-8">
          <mxGeometry relative="1" as="geometry" />
        </mxCell>
        <mxCell id="NRJpqdC6eGJBBTWSk-TN-7" value="&lt;font face=&quot;Georgia&quot;&gt;&lt;b&gt;4通道融合&lt;/b&gt;&lt;/font&gt;&lt;div&gt;&lt;font face=&quot;Georgia&quot;&gt;&lt;b&gt;RGB+D&lt;/b&gt;&lt;/font&gt;&lt;/div&gt;" style="rounded=1;whiteSpace=wrap;html=1;fillColor=#1ba1e2;fontColor=#ffffff;strokeColor=#006EAF;" vertex="1" parent="1">
          <mxGeometry x="614" y="190" width="120" height="60" as="geometry" />
        </mxCell>
        <mxCell id="NRJpqdC6eGJBBTWSk-TN-8" value="&lt;b style=&quot;&quot;&gt;&lt;font face=&quot;Georgia&quot;&gt;融合后的特征&lt;/font&gt;&lt;/b&gt;" style="ellipse;whiteSpace=wrap;html=1;aspect=fixed;fillColor=#76608a;fontColor=#ffffff;strokeColor=#432D57;" vertex="1" parent="1">
          <mxGeometry x="774" y="243" width="80" height="80" as="geometry" />
        </mxCell>
      </root>
    </mxGraphModel>
  </diagram>
</mxfile>
